<svg preserveAspectRatio="none" width="100%" height="100%" overflow="visible" style="display: block;" viewBox="0 0 40 40" fill="none" xmlns="http://www.w3.org/2000/svg" xmlns:xlink="http://www.w3.org/1999/xlink">
<g id="Vector">
<path d="M34.1176 4.70588C37.3664 4.70588 40 7.3395 40 10.5882V34.1176C40 37.3664 37.3664 40 34.1176 40H5.88235C2.63362 40 9.47467e-08 37.3664 0 34.1176V10.5882C3.78987e-07 7.3395 2.63362 4.70588 5.88235 4.70588H34.1176ZM9.41177 12.9412C8.11227 12.9412 7.05882 13.9946 7.05882 15.2941C7.05882 16.5936 8.11227 17.6471 9.41177 17.6471H30.5882C31.8877 17.6471 32.9412 16.5936 32.9412 15.2941C32.9412 13.9946 31.8877 12.9412 30.5882 12.9412H9.41177Z" fill="url(#paint0_linear_0_23)"/>
<path d="M34.1176 4.70588C37.3664 4.70588 40 7.3395 40 10.5882V34.1176C40 37.3664 37.3664 40 34.1176 40H5.88235C2.63362 40 9.47467e-08 37.3664 0 34.1176V10.5882C3.78987e-07 7.3395 2.63362 4.70588 5.88235 4.70588H34.1176ZM9.41177 12.9412C8.11227 12.9412 7.05882 13.9946 7.05882 15.2941C7.05882 16.5936 8.11227 17.6471 9.41177 17.6471H30.5882C31.8877 17.6471 32.9412 16.5936 32.9412 15.2941C32.9412 13.9946 31.8877 12.9412 30.5882 12.9412H9.41177Z" fill="url(#pattern0_0_23)" fill-opacity="0.06"/>
<path d="M10 0C11.6244 7.10033e-08 12.9412 1.31681 12.9412 2.94118V6.47059C12.9412 8.09496 11.6244 9.41177 10 9.41177C8.37563 9.41177 7.05882 8.09496 7.05882 6.47059L7.05882 2.94118C7.05882 1.31681 8.37563 -7.10033e-08 10 0Z" fill="url(#paint1_linear_0_23)"/>
<path d="M10 0C11.6244 7.10033e-08 12.9412 1.31681 12.9412 2.94118V6.47059C12.9412 8.09496 11.6244 9.41177 10 9.41177C8.37563 9.41177 7.05882 8.09496 7.05882 6.47059L7.05882 2.94118C7.05882 1.31681 8.37563 -7.10033e-08 10 0Z" fill="url(#pattern1_0_23)" fill-opacity="0.06"/>
<path d="M30 0C31.6244 7.10033e-08 32.9412 1.31681 32.9412 2.94118V6.47059C32.9412 8.09496 31.6244 9.41177 30 9.41177C28.3756 9.41177 27.0588 8.09496 27.0588 6.47059V2.94118C27.0588 1.31681 28.3756 -7.10033e-08 30 0Z" fill="url(#paint2_linear_0_23)"/>
<path d="M30 0C31.6244 7.10033e-08 32.9412 1.31681 32.9412 2.94118V6.47059C32.9412 8.09496 31.6244 9.41177 30 9.41177C28.3756 9.41177 27.0588 8.09496 27.0588 6.47059V2.94118C27.0588 1.31681 28.3756 -7.10033e-08 30 0Z" fill="url(#pattern2_0_23)" fill-opacity="0.06"/>
</g>
<defs>
<linearGradient id="paint0_linear_0_23" x1="20" y1="0" x2="20" y2="40" gradientUnits="userSpaceOnUse">
<stop stop-color="#EB0028"/>
<stop offset="1" stop-color="#570000"/>
</linearGradient>
<linearGradient id="paint1_linear_0_23" x1="20" y1="0" x2="20" y2="40" gradientUnits="userSpaceOnUse">
<stop stop-color="#EB0028"/>
<stop offset="1" stop-color="#570000"/>
</linearGradient>
<linearGradient id="paint2_linear_0_23" x1="20" y1="0" x2="20" y2="40" gradientUnits="userSpaceOnUse">
<stop stop-color="#EB0028"/>
<stop offset="1" stop-color="#570000"/>
</linearGradient>
<pattern id="pattern0_0_23" patternUnits="userSpaceOnUse" patternTransform="matrix(13.64 0 0 8.5932 1.53809 2.59021)" preserveAspectRatio="none" viewBox="13.9827 23.5474 124 78.12" width="1" height="1">
<use xlink:href="#pattern0_0_23_inner" transform="translate(0 -78.12)"/>
<use xlink:href="#pattern0_0_23_inner" transform="translate(62 -39.06)"/>
<g id="pattern0_0_23_inner">
<path id="Star 1" d="M22.3758 25.9194C22.696 22.7568 27.304 22.7568 27.6242 25.9194C27.7446 27.1086 28.6497 28.0682 29.8299 28.2579L33.7984 28.8958C36.7571 29.3714 36.7571 33.6286 33.7984 34.1042L29.8299 34.7421C28.6497 34.9318 27.7446 35.8914 27.6242 37.0806C27.304 40.2432 22.696 40.2432 22.3758 37.0806C22.2554 35.8914 21.3503 34.9318 20.1701 34.7421L16.2016 34.1042C13.2429 33.6286 13.2429 29.3714 16.2016 28.8958L20.1701 28.2579C21.3503 28.0682 22.2554 27.1086 22.3758 25.9194Z" fill="var(--fill-0, #350101)"/>
</g>
<use xlink:href="#pattern0_0_23_inner" transform="translate(62 39.06)"/>
</pattern><pattern id="pattern1_0_23" patternUnits="userSpaceOnUse" patternTransform="matrix(13.64 0 0 8.5932 1.53809 2.59021)" preserveAspectRatio="none" viewBox="13.9827 23.5474 124 78.12" width="1" height="1">
<use xlink:href="#pattern1_0_23_inner" transform="translate(0 -78.12)"/>
<use xlink:href="#pattern1_0_23_inner" transform="translate(62 -39.06)"/>
<g id="pattern1_0_23_inner">
<path id="Star 1" d="M22.3758 25.9194C22.696 22.7568 27.304 22.7568 27.6242 25.9194C27.7446 27.1086 28.6497 28.0682 29.8299 28.2579L33.7984 28.8958C36.7571 29.3714 36.7571 33.6286 33.7984 34.1042L29.8299 34.7421C28.6497 34.9318 27.7446 35.8914 27.6242 37.0806C27.304 40.2432 22.696 40.2432 22.3758 37.0806C22.2554 35.8914 21.3503 34.9318 20.1701 34.7421L16.2016 34.1042C13.2429 33.6286 13.2429 29.3714 16.2016 28.8958L20.1701 28.2579C21.3503 28.0682 22.2554 27.1086 22.3758 25.9194Z" fill="var(--fill-0, #350101)"/>
</g>
<use xlink:href="#pattern1_0_23_inner" transform="translate(62 39.06)"/>
</pattern><pattern id="pattern2_0_23" patternUnits="userSpaceOnUse" patternTransform="matrix(13.64 0 0 8.5932 1.53809 2.59021)" preserveAspectRatio="none" viewBox="13.9827 23.5474 124 78.12" width="1" height="1">
<use xlink:href="#pattern2_0_23_inner" transform="translate(0 -78.12)"/>
<use xlink:href="#pattern2_0_23_inner" transform="translate(62 -39.06)"/>
<g id="pattern2_0_23_inner">
<path id="Star 1" d="M22.3758 25.9194C22.696 22.7568 27.304 22.7568 27.6242 25.9194C27.7446 27.1086 28.6497 28.0682 29.8299 28.2579L33.7984 28.8958C36.7571 29.3714 36.7571 33.6286 33.7984 34.1042L29.8299 34.7421C28.6497 34.9318 27.7446 35.8914 27.6242 37.0806C27.304 40.2432 22.696 40.2432 22.3758 37.0806C22.2554 35.8914 21.3503 34.9318 20.1701 34.7421L16.2016 34.1042C13.2429 33.6286 13.2429 29.3714 16.2016 28.8958L20.1701 28.2579C21.3503 28.0682 22.2554 27.1086 22.3758 25.9194Z" fill="var(--fill-0, #350101)"/>
</g>
<use xlink:href="#pattern2_0_23_inner" transform="translate(62 39.06)"/>
</pattern></defs>
</svg>
