<svg preserveAspectRatio="none" width="100%" height="100%" overflow="visible" style="display: block;" viewBox="0 0 33 40" fill="none" xmlns="http://www.w3.org/2000/svg" xmlns:xlink="http://www.w3.org/1999/xlink">
<g id="Vector">
<path d="M16.5 0C25.6127 0 33 7.46192 33 16.6667C33 25.8714 25.6127 33.3333 16.5 33.3333C7.3873 33.3333 0 25.8714 0 16.6667C0 7.46192 7.3873 0 16.5 0ZM16.5 12.2222C14.0699 12.2222 12.1 14.2121 12.1 16.6667C12.1 19.1213 14.0699 21.1111 16.5 21.1111C18.9301 21.1111 20.9 19.1213 20.9 16.6667C20.9 14.2121 18.9301 12.2222 16.5 12.2222Z" fill="url(#paint0_linear_0_27)"/>
<path d="M16.5 0C25.6127 0 33 7.46192 33 16.6667C33 25.8714 25.6127 33.3333 16.5 33.3333C7.3873 33.3333 0 25.8714 0 16.6667C0 7.46192 7.3873 0 16.5 0ZM16.5 12.2222C14.0699 12.2222 12.1 14.2121 12.1 16.6667C12.1 19.1213 14.0699 21.1111 16.5 21.1111C18.9301 21.1111 20.9 19.1213 20.9 16.6667C20.9 14.2121 18.9301 12.2222 16.5 12.2222Z" fill="url(#pattern0_0_27)" fill-opacity="0.06"/>
<path d="M16.5 40L6.6 30H26.4L16.5 40Z" fill="url(#paint1_linear_0_27)"/>
<path d="M16.5 40L6.6 30H26.4L16.5 40Z" fill="url(#pattern1_0_27)" fill-opacity="0.06"/>
</g>
<defs>
<linearGradient id="paint0_linear_0_27" x1="16.5" y1="0" x2="16.5" y2="40" gradientUnits="userSpaceOnUse">
<stop stop-color="#EB0028"/>
<stop offset="1" stop-color="#570000"/>
</linearGradient>
<linearGradient id="paint1_linear_0_27" x1="16.5" y1="0" x2="16.5" y2="40" gradientUnits="userSpaceOnUse">
<stop stop-color="#EB0028"/>
<stop offset="1" stop-color="#570000"/>
</linearGradient>
<pattern id="pattern0_0_27" patternUnits="userSpaceOnUse" patternTransform="matrix(13.64 0 0 8.5932 1.53809 2.59021)" preserveAspectRatio="none" viewBox="13.9827 23.5474 124 78.12" width="1" height="1">
<use xlink:href="#pattern0_0_27_inner" transform="translate(0 -78.12)"/>
<use xlink:href="#pattern0_0_27_inner" transform="translate(62 -39.06)"/>
<g id="pattern0_0_27_inner">
<path id="Star 1" d="M22.3758 25.9194C22.696 22.7568 27.304 22.7568 27.6242 25.9194C27.7446 27.1086 28.6497 28.0682 29.8299 28.2579L33.7984 28.8958C36.7571 29.3714 36.7571 33.6286 33.7984 34.1042L29.8299 34.7421C28.6497 34.9318 27.7446 35.8914 27.6242 37.0806C27.304 40.2432 22.696 40.2432 22.3758 37.0806C22.2554 35.8914 21.3503 34.9318 20.1701 34.7421L16.2016 34.1042C13.2429 33.6286 13.2429 29.3714 16.2016 28.8958L20.1701 28.2579C21.3503 28.0682 22.2554 27.1086 22.3758 25.9194Z" fill="var(--fill-0, #350101)"/>
</g>
<use xlink:href="#pattern0_0_27_inner" transform="translate(62 39.06)"/>
</pattern><pattern id="pattern1_0_27" patternUnits="userSpaceOnUse" patternTransform="matrix(13.64 0 0 8.5932 1.53809 2.59021)" preserveAspectRatio="none" viewBox="13.9827 23.5474 124 78.12" width="1" height="1">
<use xlink:href="#pattern1_0_27_inner" transform="translate(0 -78.12)"/>
<use xlink:href="#pattern1_0_27_inner" transform="translate(62 -39.06)"/>
<g id="pattern1_0_27_inner">
<path id="Star 1" d="M22.3758 25.9194C22.696 22.7568 27.304 22.7568 27.6242 25.9194C27.7446 27.1086 28.6497 28.0682 29.8299 28.2579L33.7984 28.8958C36.7571 29.3714 36.7571 33.6286 33.7984 34.1042L29.8299 34.7421C28.6497 34.9318 27.7446 35.8914 27.6242 37.0806C27.304 40.2432 22.696 40.2432 22.3758 37.0806C22.2554 35.8914 21.3503 34.9318 20.1701 34.7421L16.2016 34.1042C13.2429 33.6286 13.2429 29.3714 16.2016 28.8958L20.1701 28.2579C21.3503 28.0682 22.2554 27.1086 22.3758 25.9194Z" fill="var(--fill-0, #350101)"/>
</g>
<use xlink:href="#pattern1_0_27_inner" transform="translate(62 39.06)"/>
</pattern></defs>
</svg>
