<svg preserveAspectRatio="none" width="100%" height="100%" overflow="visible" style="display: block;" viewBox="0 0 40 40" fill="none" xmlns="http://www.w3.org/2000/svg" xmlns:xlink="http://www.w3.org/1999/xlink">
<g id="Exclude">
<path d="M20 0C31.0457 0 40 8.95431 40 20C40 31.0457 31.0457 40 20 40C8.95433 40 0 31.0457 0 20C0 8.95432 8.95433 3.10471e-05 20 0ZM18.748 9.14258C17.4859 9.1428 16.4629 10.1665 16.4629 11.4287V20.5713C16.4629 21.3258 16.8299 21.9929 17.3936 22.4092C17.4608 22.5003 17.5337 22.5894 17.6162 22.6719L23.8984 28.9531C24.7911 29.8458 26.2382 29.8458 27.1309 28.9531C28.0232 28.0605 28.0234 26.6132 27.1309 25.7207L21.0342 19.624V11.4287C21.0342 10.1663 20.0104 9.14258 18.748 9.14258Z" fill="url(#paint0_linear_0_24)"/>
<path d="M20 0C31.0457 0 40 8.95431 40 20C40 31.0457 31.0457 40 20 40C8.95433 40 0 31.0457 0 20C0 8.95432 8.95433 3.10471e-05 20 0ZM18.748 9.14258C17.4859 9.1428 16.4629 10.1665 16.4629 11.4287V20.5713C16.4629 21.3258 16.8299 21.9929 17.3936 22.4092C17.4608 22.5003 17.5337 22.5894 17.6162 22.6719L23.8984 28.9531C24.7911 29.8458 26.2382 29.8458 27.1309 28.9531C28.0232 28.0605 28.0234 26.6132 27.1309 25.7207L21.0342 19.624V11.4287C21.0342 10.1663 20.0104 9.14258 18.748 9.14258Z" fill="url(#pattern0_0_24)" fill-opacity="0.06"/>
</g>
<defs>
<linearGradient id="paint0_linear_0_24" x1="20" y1="0" x2="20" y2="40" gradientUnits="userSpaceOnUse">
<stop stop-color="#EB0028"/>
<stop offset="1" stop-color="#570000"/>
</linearGradient>
<pattern id="pattern0_0_24" patternUnits="userSpaceOnUse" patternTransform="matrix(13.64 0 0 8.5932 1.53809 2.59021)" preserveAspectRatio="none" viewBox="13.9827 23.5474 124 78.12" width="1" height="1">
<use xlink:href="#pattern0_0_24_inner" transform="translate(0 -78.12)"/>
<use xlink:href="#pattern0_0_24_inner" transform="translate(62 -39.06)"/>
<g id="pattern0_0_24_inner">
<path id="Star 1" d="M22.3758 25.9194C22.696 22.7568 27.304 22.7568 27.6242 25.9194C27.7446 27.1086 28.6497 28.0682 29.8299 28.2579L33.7984 28.8958C36.7571 29.3714 36.7571 33.6286 33.7984 34.1042L29.8299 34.7421C28.6497 34.9318 27.7446 35.8914 27.6242 37.0806C27.304 40.2432 22.696 40.2432 22.3758 37.0806C22.2554 35.8914 21.3503 34.9318 20.1701 34.7421L16.2016 34.1042C13.2429 33.6286 13.2429 29.3714 16.2016 28.8958L20.1701 28.2579C21.3503 28.0682 22.2554 27.1086 22.3758 25.9194Z" fill="var(--fill-0, #350101)"/>
</g>
<use xlink:href="#pattern0_0_24_inner" transform="translate(62 39.06)"/>
</pattern></defs>
</svg>
