<?xml version="1.0" encoding="UTF-8"?>
<svg version="1.1" xmlns="http://www.w3.org/2000/svg" width="296" height="303">
<path d="M0 0 C7.39530704 7.75567158 9.5515534 17.33111984 11.25 27.625 C11.43461792 28.67711166 11.61923584 29.72922333 11.80944824 30.81321716 C12.59075985 35.26649918 13.34705543 39.72391856 14.10400391 44.18139648 C14.66391741 47.45600592 15.23781961 50.72795506 15.8125 54 C15.97617065 54.99399307 16.13984131 55.98798615 16.30847168 57.01210022 C17.84139972 65.71590477 20.05605163 73.40639279 27.03125 79.24609375 C28.02125 80.11234375 29.01125 80.97859375 30.03125 81.87109375 C35.87570705 85.94683354 43.41573875 86.72978352 50.32568359 87.71655273 C56.28532411 88.56821042 62.21904422 89.56402109 68.15625 90.55859375 C69.39890625 90.75904297 70.6415625 90.95949219 71.921875 91.16601562 C96.63035611 95.33138066 96.63035611 95.33138066 104.03125 104.24609375 C110.81426961 114.03387205 112.41165359 122.87148479 110.67578125 134.66015625 C108.26297804 142.53010497 101.5774849 149.04569956 94.51953125 152.8828125 C88.63014148 155.67607215 82.67782934 156.81275985 76.28125 157.87109375 C75.10763916 158.07855225 73.93402832 158.28601074 72.72485352 158.49975586 C64.30752371 159.95698439 55.85912261 161.18954185 47.36230469 162.08251953 C38.21290078 163.15670474 29.8680136 165.97770295 23.54296875 172.8671875 C17.74742784 180.24463784 16.64290647 189.26535014 15.03125 198.24609375 C14.73154297 199.91309326 14.73154297 199.91309326 14.42578125 201.61376953 C13.12689365 208.87715814 13.12689365 208.87715814 11.86889648 216.14770508 C7.34620444 242.40470423 7.34620444 242.40470423 -2.96875 251.24609375 C-11.68436486 256.95366454 -20.81995501 257.45631947 -30.96875 256.24609375 C-39.46475455 253.69638177 -45.72304641 249.12485809 -50.00219727 241.37426758 C-53.09520821 234.85287772 -54.27278073 228.33802165 -55.40625 221.24609375 C-55.83176528 218.75884581 -56.25888362 216.27187166 -56.6875 213.78515625 C-56.90019531 212.53250977 -57.11289063 211.27986328 -57.33203125 209.98925781 C-58.31814219 204.19207492 -59.33100866 198.40243214 -60.40625 192.62109375 C-60.57503662 191.62207031 -60.74382324 190.62304688 -60.91772461 189.59375 C-62.56584111 180.89793141 -65.8299289 173.13333832 -73.21875 167.87109375 C-82.72406172 162.8808051 -93.88396147 161.73767814 -104.34765625 160.03125 C-104.99819977 159.92489731 -105.64874329 159.81854462 -106.31900024 159.70896912 C-109.56762905 159.17974518 -112.81690074 158.66490422 -116.07128906 158.17163086 C-142.19390037 154.0621654 -142.19390037 154.0621654 -149.71484375 143.8828125 C-155.06332766 135.43041227 -157.06102328 127.67830108 -155.609375 117.80078125 C-153.68606699 109.5097643 -148.57371997 103.6214212 -141.7890625 98.6484375 C-131.62832488 92.90006172 -118.94845212 91.72812468 -107.59375 89.83984375 C-106.08006232 89.58464776 -104.56639061 89.32935705 -103.05273438 89.07397461 C-100.04648446 88.56741048 -97.03767367 88.08467641 -94.02539062 87.61547852 C-83.27049375 85.87233613 -73.4583981 83.47803549 -66.4128418 74.5546875 C-59.67228843 63.77891867 -58.98883695 49.39156227 -57.11694336 37.0847168 C-52.4220641 6.50872977 -52.4220641 6.50872977 -39.96875 -3.75390625 C-27.0293991 -11.18168631 -11.21193789 -9.98841292 0 0 Z " fill="#000000" transform="translate(168.96875,20.75390625)"/>
<path d="M0 0 C-0.66 0.99 -1.32 1.98 -2 3 C-3.9453125 3.29296875 -3.9453125 3.29296875 -6.125 3.1875 C-7.40375 3.125625 -8.6825 3.06375 -10 3 C-10 3.66 -10 4.32 -10 5 C-11.98 5.66 -13.96 6.32 -16 7 C-16 7.66 -16 8.32 -16 9 C-16.7425 9.70125 -17.485 10.4025 -18.25 11.125 C-24.38304884 17.53682379 -25.53975689 23.80935124 -26.31713867 32.36450195 C-26.66577818 36.06918734 -27.28726226 38.73146861 -29 42 C-29.41622181 44.78208706 -29.41622181 44.78208706 -29.5625 47.6875 C-29.90084986 52.90084986 -29.90084986 52.90084986 -31 54 C-31.20775561 55.66204487 -31.36718255 57.33029491 -31.5 59 C-31.88888889 63.88888889 -31.88888889 63.88888889 -33 65 C-33.36760731 67.32817964 -33.70241581 69.6618385 -34 72 C-34.66 72 -35.32 72 -36 72 C-35.20982856 63.83489515 -33.94737766 55.74877272 -32.63574219 47.65429688 C-32.37987886 46.05952341 -32.12981571 44.46380786 -31.88574219 42.8671875 C-29.64369081 28.21831276 -27.08631403 13.94781929 -15 4 C-10.03864362 1.16177978 -5.7264764 -0.22337319 0 0 Z " fill="#151515" transform="translate(144,13)"/>
<path d="M0 0 C3.76940009 3.25539099 4.87641663 6.56675393 5.30078125 11.48828125 C5.33730143 23.40603412 3.94205754 29.90298721 -4.4921875 38.73046875 C-12.25432641 45.75508356 -20.82372961 47.01756467 -31 48 C-30.67 47.01 -30.34 46.02 -30 45 C-26.37 45 -22.74 45 -19 45 C-19 44.34 -19 43.68 -19 43 C-18.33613281 42.75765625 -17.67226563 42.5153125 -16.98828125 42.265625 C-9.72772551 39.50979362 -4.44251173 36.58717257 0 30 C1.75003726 24.94918072 2.31099619 20.30666819 2.25 15 C2.25773437 14.32710937 2.26546875 13.65421875 2.2734375 12.9609375 C2.25525057 8.25052382 1.45200533 4.42515911 0 0 Z " fill="#141414" transform="translate(275,130)"/>
<path d="M0 0 C7.7054787 8.74152092 8.34898837 26.42937525 10.34741211 37.64990234 C10.8197769 40.29068187 11.30701576 42.9284589 11.79492188 45.56640625 C12.09985001 47.25765198 12.40391972 48.94905275 12.70703125 50.640625 C12.85276077 51.42286438 12.9984903 52.20510376 13.14863586 53.01104736 C13.79017514 56.68393138 14.06984966 59.43369047 13 63 C10.72350188 58.5987703 9.87905542 55.28028936 9.9375 50.3125 C9.94652344 49.31863281 9.95554688 48.32476562 9.96484375 47.30078125 C9.97644531 46.54152344 9.98804688 45.78226563 10 45 C9.34 45 8.68 45 8 45 C7.93941406 44.14535156 7.87882813 43.29070312 7.81640625 42.41015625 C7.73261719 41.30542969 7.64882812 40.20070312 7.5625 39.0625 C7.48128906 37.96035156 7.40007812 36.85820313 7.31640625 35.72265625 C7.29581916 33.08890097 7.29581916 33.08890097 6 32 C5.92773498 30.14712498 5.9161878 28.29166122 5.9375 26.4375 C5.94652344 25.42558594 5.95554688 24.41367187 5.96484375 23.37109375 C5.97644531 22.58863281 5.98804688 21.80617188 6 21 C5.34 21 4.68 21 4 21 C3.34 16.71 2.68 12.42 2 8 C1.67 8 1.34 8 1 8 C0.67 5.36 0.34 2.72 0 0 Z " fill="#151515" transform="translate(173,27)"/>
<path d="M0 0 C3.6523081 3.11010979 4.70589378 5.52912597 5.6875 10.1875 C6.2192644 13.90186385 6.2192644 13.90186385 8 17 C8.07258946 19.18639453 8.08373783 21.37500389 8.0625 23.5625 C8.05347656 24.76003906 8.04445313 25.95757812 8.03515625 27.19140625 C8.02355469 28.11824219 8.01195313 29.04507813 8 30 C8.66 30 9.32 30 10 30 C10.06058594 30.78246094 10.12117188 31.56492188 10.18359375 32.37109375 C10.26738281 33.38300781 10.35117188 34.39492187 10.4375 35.4375 C10.51871094 36.44683594 10.59992188 37.45617187 10.68359375 38.49609375 C10.73211468 40.93640779 10.73211468 40.93640779 12 42 C12.04080783 43.99958364 12.04254356 46.00045254 12 48 C11.34 48 10.68 48 10 48 C9.7054895 46.29855835 9.7054895 46.29855835 9.4050293 44.56274414 C8.66836113 40.3178534 7.92253962 36.07461188 7.17407227 31.83178711 C6.85259768 30.00214024 6.5335417 28.17206657 6.21704102 26.34155273 C5.75926912 23.69656837 5.29255565 21.05328786 4.82421875 18.41015625 C4.68658615 17.60353043 4.54895355 16.7969046 4.40715027 15.96583557 C3.41768747 10.44899382 1.90496851 5.2695538 0 0 Z " fill="#151515" transform="translate(104,196)"/>
<path d="M0 0 C0.66 0.33 1.32 0.66 2 1 C1.61328125 1.44085938 1.2265625 1.88171875 0.828125 2.3359375 C-5.10341246 9.99995372 -6.30434435 18.69932875 -8 28 C-8.226875 29.19109375 -8.45375 30.3821875 -8.6875 31.609375 C-9.14647253 34.06997775 -9.58675128 36.53138265 -10 39 C-10.33 39 -10.66 39 -11 39 C-11.02694851 37.04174127 -11.04637218 35.08337774 -11.0625 33.125 C-11.07410156 32.03445312 -11.08570313 30.94390625 -11.09765625 29.8203125 C-11 27 -11 27 -10 25 C-9.89624207 23.5012743 -9.81649295 22.00084081 -9.75 20.5 C-9.12245964 13.41188017 -5.88933659 7.83400488 -2 2 C-1.34 2 -0.68 2 0 2 C0 1.34 0 0.68 0 0 Z " fill="#101010" transform="translate(192,191)"/>
<path d="M0 0 C-0.33 0.99 -0.66 1.98 -1 3 C-1.71027344 3.06058594 -2.42054687 3.12117188 -3.15234375 3.18359375 C-4.07144531 3.26738281 -4.99054688 3.35117188 -5.9375 3.4375 C-7.31228516 3.55931641 -7.31228516 3.55931641 -8.71484375 3.68359375 C-10.96159732 3.76044976 -10.96159732 3.76044976 -12 5 C-14.57897694 5.32237212 -17.15931821 5.51267304 -19.75 5.71875 C-21.96665352 5.76200665 -21.96665352 5.76200665 -23 7 C-25.18639453 7.07258946 -27.37500389 7.08373783 -29.5625 7.0625 C-31.35880859 7.04896484 -31.35880859 7.04896484 -33.19140625 7.03515625 C-34.11824219 7.02355469 -35.04507813 7.01195313 -36 7 C-36 6.67 -36 6.34 -36 6 C-31.35584074 5.14212533 -26.71106181 4.28771949 -22.06567383 3.43652344 C-20.48542035 3.14646151 -18.90534049 2.85545207 -17.32543945 2.56347656 C-15.05464931 2.14399035 -12.78325685 1.72791436 -10.51171875 1.3125 C-9.80536789 1.18125732 -9.09901703 1.05001465 -8.3712616 0.91479492 C-5.53096327 0.39819987 -2.89430099 0 0 0 Z " fill="#111111" transform="translate(90,106)"/>
<path d="M0 0 C0 0.99 0 1.98 0 3 C-2 5 -2 5 -4 7 C-4.7872678 9.1381966 -4.7872678 9.1381966 -5 11 C-5.66 11 -6.32 11 -7 11 C-6.979375 12.299375 -6.95875 13.59875 -6.9375 14.9375 C-6.91600546 16.29165633 -6.92851801 17.64756083 -7 19 C-7.33 19.33 -7.66 19.66 -8 20 C-8.36760731 22.32817964 -8.70241581 24.6618385 -9 27 C-9.66 27 -10.32 27 -11 27 C-11.50736673 17.86739879 -9.99319436 10.84332267 -3.8125 3.875 C-2.55747657 2.56796659 -1.29198832 1.27050633 0 0 Z " fill="#171717" transform="translate(24,122)"/>
<path d="M0 0 C0.99 0 1.98 0 3 0 C1.2541588 7.41982512 -2.05437281 11.49886063 -8 16.375 C-8.845625 17.08398438 -9.69125 17.79296875 -10.5625 18.5234375 C-13 20 -13 20 -15.3125 19.7265625 C-16.1478125 19.36691406 -16.1478125 19.36691406 -17 19 C-16.49210937 18.72027344 -15.98421875 18.44054687 -15.4609375 18.15234375 C-7.6814922 13.62161812 -3.10401668 8.4498232 0 0 Z " fill="#121212" transform="translate(107,86)"/>
<path d="M0 0 C1.88960908 5.43586175 -0.23999458 10.74685405 -2 16 C-4.10094286 20.32387596 -5.97354843 23.31569895 -10 26 C-8.97048243 23.89786879 -7.90890384 21.84079456 -6.74609375 19.80859375 C-3.63017448 14.16273406 -2.41022162 9.60463237 -2.23828125 3.15234375 C-2.12033203 2.08693359 -2.12033203 2.08693359 -2 1 C-1.34 0.67 -0.68 0.34 0 0 Z " fill="#101010" transform="translate(178,243)"/>
<path d="M0 0 C1.61068359 0.41572266 1.61068359 0.41572266 3.25390625 0.83984375 C4.69005529 1.20592096 6.12625599 1.57179558 7.5625 1.9375 C8.26697266 2.11990234 8.97144531 2.30230469 9.69726562 2.49023438 C14.11522492 3.60999364 18.47229742 4.4172264 23 5 C24.66934283 5.31966139 26.3373217 5.64731066 28 6 C28 6.33 28 6.66 28 7 C18.49225812 7.51444696 8.48027021 6.69990879 0 2 C0 1.34 0 0.68 0 0 Z " fill="#121212" transform="translate(200,104)"/>
<path d="M0 0 C5.52035142 -0.19369654 9.67947789 0.32502082 15 2 C16.670625 2.2475 16.670625 2.2475 18.375 2.5 C19.674375 2.7475 19.674375 2.7475 21 3 C21.33 3.66 21.66 4.32 22 5 C7.49934469 3.80471822 7.49934469 3.80471822 1 2 C0.67 1.34 0.34 0.68 0 0 Z " fill="#101010" transform="translate(41,175)"/>
<path d="M0 0 C6.60929383 1.00413308 10.79229827 2.78951775 16 7 C14.68 7.33 13.36 7.66 12 8 C11.67 7.01 11.34 6.02 11 5 C9.68 5 8.36 5 7 5 C7 4.34 7 3.68 7 3 C5.02 3 3.04 3 1 3 C0.67 2.01 0.34 1.02 0 0 Z " fill="#131313" transform="translate(152,13)"/>
<path d="M0 0 C1.485 0.99 1.485 0.99 3 2 C3.1875 5.125 3.1875 5.125 3 8 C3.66 8 4.32 8 5 8 C6.06775224 9.96466413 7.06553465 11.96855359 8 14 C7.67 14.66 7.34 15.32 7 16 C2.73590404 11.14775287 0 6.56304288 0 0 Z " fill="#151515" transform="translate(14,150)"/>
<path d="M0 0 C-2.64158223 2.64158223 -5.48277519 3.11559144 -9 4 C-9.73863281 4.18820313 -10.47726563 4.37640625 -11.23828125 4.5703125 C-13.15700805 5.05425425 -15.07829986 5.52800347 -17 6 C-14.64350301 3.31127557 -12.36421235 2.0806149 -9.0625 0.75 C-8.20785156 0.39421875 -7.35320313 0.0384375 -6.47265625 -0.328125 C-3.82854634 -1.04658772 -2.54131429 -0.91982605 0 0 Z " fill="#121212" transform="translate(42,116)"/>
<path d="M0 0 C-2.05233685 2.2477975 -3.00667261 3.0022242 -6 4 C-8.1875 3.0625 -8.1875 3.0625 -10 2 C-6.49223216 0.39644899 -3.85645121 -0.22036864 0 0 Z " fill="#0E0E0E" transform="translate(266,171)"/>
<path d="" fill="#000000" transform="translate(0,0)"/>
<path d="" fill="#000000" transform="translate(0,0)"/>
<path d="" fill="#000000" transform="translate(0,0)"/>
<path d="" fill="#000000" transform="translate(0,0)"/>
<path d="" fill="#000000" transform="translate(0,0)"/>
<path d="" fill="#000000" transform="translate(0,0)"/>
<path d="" fill="#000000" transform="translate(0,0)"/>
<path d="" fill="#000000" transform="translate(0,0)"/>
<path d="" fill="#000000" transform="translate(0,0)"/>
<path d="" fill="#000000" transform="translate(0,0)"/>
<path d="" fill="#000000" transform="translate(0,0)"/>
<path d="" fill="#000000" transform="translate(0,0)"/>
<path d="" fill="#000000" transform="translate(0,0)"/>
<path d="" fill="#FF0000" transform="translate(0,0)"/>
<path d="" fill="#000000" transform="translate(0,0)"/>
<path d="" fill="#000000" transform="translate(0,0)"/>
<path d="" fill="#000000" transform="translate(0,0)"/>
<path d="" fill="#000000" transform="translate(0,0)"/>
<path d="" fill="#000000" transform="translate(0,0)"/>
<path d="" fill="#000000" transform="translate(0,0)"/>
<path d="" fill="#000000" transform="translate(0,0)"/>
<path d="" fill="#000000" transform="translate(0,0)"/>
<path d="" fill="#000000" transform="translate(0,0)"/>
<path d="" fill="#000000" transform="translate(0,0)"/>
<path d="" fill="#000000" transform="translate(0,0)"/>
<path d="" fill="#000000" transform="translate(0,0)"/>
<path d="" fill="#000000" transform="translate(0,0)"/>
<path d="" fill="#000000" transform="translate(0,0)"/>
<path d="" fill="#000000" transform="translate(0,0)"/>
<path d="" fill="#000000" transform="translate(0,0)"/>
<path d="" fill="#000000" transform="translate(0,0)"/>
<path d="" fill="#000000" transform="translate(0,0)"/>
<path d="" fill="#000000" transform="translate(0,0)"/>
<path d="" fill="#000000" transform="translate(0,0)"/>
<path d="" fill="#000000" transform="translate(0,0)"/>
<path d="" fill="#000000" transform="translate(0,0)"/>
<path d="" fill="#000000" transform="translate(0,0)"/>
<path d="" fill="#000000" transform="translate(0,0)"/>
<path d="" fill="#000000" transform="translate(0,0)"/>
<path d="" fill="#000000" transform="translate(0,0)"/>
<path d="" fill="#000000" transform="translate(0,0)"/>
<path d="" fill="#000000" transform="translate(0,0)"/>
<path d="" fill="#000000" transform="translate(0,0)"/>
<path d="" fill="#000000" transform="translate(0,0)"/>
<path d="" fill="#000000" transform="translate(0,0)"/>
<path d="" fill="#000000" transform="translate(0,0)"/>
<path d="" fill="#000000" transform="translate(0,0)"/>
<path d="" fill="#000000" transform="translate(0,0)"/>
<path d="" fill="#000000" transform="translate(0,0)"/>
<path d="" fill="#000000" transform="translate(0,0)"/>
<path d="" fill="#000000" transform="translate(0,0)"/>
<path d="" fill="#000000" transform="translate(0,0)"/>
<path d="" fill="#000000" transform="translate(0,0)"/>
<path d="" fill="#000000" transform="translate(0,0)"/>
<path d="" fill="#000000" transform="translate(0,0)"/>
</svg>
